<?xml version="1.0" encoding="UTF-8"?>
<svg id="Capa_2" data-name="Capa 2" xmlns="http://www.w3.org/2000/svg" viewBox="0 0 435.4 576.72">
  <defs>
    <style>
      .cls-1 {
        stroke-width: 0px;
      }
    </style>
  </defs>
  <g id="Capa_1-2" data-name="Capa 1">
    <g>
      <path class="cls-1" d="m217.98.01c64,0,128,0,192,0,2.3,0,4.58.04,6.87.53,9.41,2,16.53,9.15,18.21,18.59.59,3.32.3,6.69,0,10.03-.31,3.54-.68,7.08-1.02,10.62-.39,4.17-.78,8.33-1.14,12.5-.3,3.44-.52,6.89-.82,10.33-.3,3.44-.65,6.88-.97,10.31-.25,2.6-.52,5.21-.74,7.81-.49,5.84-.94,11.68-1.45,17.52-.29,3.34-.65,6.67-.97,10-.25,2.6-.51,5.21-.73,7.81-.49,5.84-.93,11.68-1.44,17.52-.51,5.73-1.1,11.46-1.64,17.19-.26,2.71-.49,5.42-.72,8.13-.48,5.74-.92,11.47-1.43,17.21-.52,5.84-1.12,11.66-1.65,17.5-.3,3.33-.52,6.68-.82,10.01-.32,3.65-.68,7.29-1.03,10.94-.24,2.6-.5,5.21-.72,7.81-.49,5.84-.92,11.68-1.44,17.52-.51,5.73-1.11,11.46-1.64,17.19-.31,3.33-.53,6.68-.82,10.01-.31,3.54-.65,7.09-.98,10.63-.25,2.71-.55,5.41-.77,8.12-.49,5.84-.92,11.68-1.44,17.52-.51,5.73-1.11,11.46-1.64,17.19-.31,3.33-.53,6.68-.82,10.01-.31,3.54-.64,7.09-.97,10.63-.25,2.71-.55,5.41-.78,8.12-.49,5.84-.92,11.68-1.44,17.52-.51,5.73-1.1,11.46-1.64,17.19-.25,2.71-.39,5.42-.68,8.13-.6,5.72-.95,11.47-1.46,17.2-.52,5.84-1.13,11.66-1.66,17.5-.3,3.33-.52,6.68-.81,10.01-.32,3.65-.69,7.29-1.03,10.94-.25,2.71-.52,5.42-.74,8.13-.49,5.84-.92,11.68-1.44,17.52-.5,5.63-1.11,11.25-1.63,16.87-.31,3.33-.52,6.68-.81,10.01-.31,3.54-.65,7.09-.98,10.63-.25,2.71-.54,5.41-.77,8.13-.29,3.44-.5,6.89-.8,10.33-.29,3.34-.66,6.66-.97,10-.3,3.23-.56,6.46-.85,9.7-.23,2.61-.38,5.22-.75,7.81-1.32,9.31-8.49,17.03-17.67,19.12-1.95.44-3.91.68-5.91.67-7.33-.03-14.66-.01-22-.01-89.87,0-179.74,0-269.62,0-2.41,0-4.79-.03-7.19-.51-9.8-1.96-17.79-10.46-18.53-21.09-.42-6.05-1.15-12.08-1.69-18.13-.52-5.94-.94-11.89-1.46-17.83-.5-5.63-1.1-11.25-1.62-16.87-.32-3.44-.55-6.89-.85-10.33-.3-3.44-.63-6.88-.95-10.31-.24-2.6-.52-5.21-.74-7.81-.29-3.44-.53-6.89-.83-10.33-.3-3.44-.65-6.87-.97-10.31-.28-3.02-.58-6.04-.83-9.07-.28-3.44-.49-6.89-.79-10.33-.3-3.33-.69-6.66-1.02-9.99-.22-2.19-.4-4.38-.58-6.57-.28-3.44-.54-6.89-.82-10.33-.25-3.02-.5-6.05-.77-9.07-.36-4.06-.74-8.13-1.12-12.19-.33-3.54-.68-7.08-1.01-10.62-.25-2.71-.52-5.42-.75-8.13-.49-5.84-.91-11.68-1.43-17.52-.5-5.63-1.1-11.25-1.62-16.87-.32-3.44-.54-6.89-.84-10.33-.3-3.44-.63-6.88-.96-10.31-.24-2.6-.52-5.21-.74-7.81-.29-3.44-.53-6.89-.83-10.33-.3-3.44-.65-6.87-.97-10.31-.24-2.5-.48-5-.7-7.5-.29-3.44-.54-6.89-.84-10.33-.3-3.44-.64-6.88-.96-10.31-.24-2.6-.52-5.21-.74-7.81-.29-3.44-.53-6.89-.82-10.33-.29-3.34-.62-6.67-.93-10-.25-2.6-.52-5.21-.74-7.81-.3-3.44-.54-6.89-.84-10.33-.3-3.44-.64-6.88-.96-10.31-.25-2.6-.52-5.21-.74-7.81-.29-3.44-.53-6.89-.82-10.33-.29-3.34-.62-6.67-.93-10-.25-2.6-.52-5.21-.74-7.81-.3-3.44-.54-6.89-.83-10.33-.3-3.44-.64-6.88-.96-10.31-.26-2.71-.54-5.42-.76-8.13-.29-3.44-.51-6.89-.81-10.33-.29-3.34-.65-6.66-.97-10-.24-2.5-.48-5-.69-7.5-.29-3.44-.53-6.89-.83-10.33-.3-3.44-.64-6.88-.96-10.31-.28-3.02-.58-6.04-.83-9.07-.29-3.44-.49-6.89-.8-10.33-.29-3.23-.68-6.45-.99-9.68-.27-2.81-.5-5.63-.74-8.44-.49-5.84-.88-11.69-1.48-17.52C.23,27.82,0,25.22,0,22.6-.04,12.78,7.3,2.95,18.18.62,20.55.11,22.94,0,25.36,0c64.21.01,128.42.01,192.63.01Zm-.31,23.61c-62.84,0-125.69,0-188.53,0-1.05,0-2.09,0-3.14.01-.42,0-.84.04-1.25.12-.57.11-.91.51-.97,1.08-.04.41,0,.83.05,1.25.52,5.63,1.07,11.25,1.57,16.88.5,5.73.95,11.47,1.43,17.21.23,2.71.46,5.42.72,8.13.54,5.73,1.13,11.45,1.64,17.18.52,5.84.95,11.68,1.44,17.52.23,2.71.53,5.41.78,8.12.33,3.54.66,7.08.97,10.63.29,3.34.52,6.68.82,10.01.53,5.73,1.13,11.45,1.64,17.19.52,5.84.95,11.68,1.44,17.52.23,2.71.52,5.42.78,8.12.33,3.54.67,7.08.97,10.63.29,3.34.51,6.68.82,10.01.53,5.73,1.13,11.45,1.64,17.19.52,5.84.95,11.68,1.44,17.52.22,2.61.48,5.21.72,7.81.35,3.75.71,7.5,1.04,11.25.28,3.23.51,6.47.8,9.7.54,5.83,1.13,11.66,1.65,17.5.51,5.73.95,11.47,1.43,17.21.23,2.71.46,5.42.72,8.13.54,5.73,1.13,11.45,1.63,17.19.52,5.84.95,11.68,1.44,17.52.22,2.61.49,5.21.73,7.81.34,3.65.69,7.29,1.01,10.94.29,3.34.53,6.68.83,10.01.31,3.44.71,6.87,1.01,10.31.51,5.84.96,11.68,1.44,17.52.2,2.4.42,4.79.65,7.19.56,5.94,1.15,11.87,1.68,17.81.51,5.73.93,11.47,1.44,17.2.52,5.84,1.15,11.66,1.66,17.5.52,5.84.94,11.68,1.43,17.52.22,2.71.48,5.42.74,8.13.54,5.73,1.12,11.45,1.63,17.19.52,5.84.96,11.68,1.45,17.52.21,2.5.45,5,.69,7.5.32,3.33.7,6.66.99,10,.3,3.44.51,6.89.8,10.33.24,2.81.42,5.64.83,8.43.56,3.88-.14,3.99,4.61,3.99,95.1,0,190.2,0,285.31,0,.63,0,1.26.01,1.89-.01,1.95-.09,2.19-.25,2.51-2.08.23-1.34.36-2.7.48-4.05.32-3.54.61-7.09.93-10.63.31-3.44.65-6.87.95-10.31.3-3.44.55-6.88.84-10.33.21-2.5.46-5,.7-7.5.32-3.44.67-6.87.97-10.31.3-3.44.55-6.89.83-10.33.18-2.19.37-4.38.58-6.57.33-3.33.73-6.66,1.02-9.99.31-3.44.51-6.89.8-10.33.25-3.02.55-6.04.83-9.07.32-3.44.67-6.87.97-10.31.3-3.44.55-6.89.83-10.33.18-2.19.37-4.38.58-6.57.33-3.33.73-6.66,1.02-9.99.31-3.44.51-6.89.8-10.33.25-3.02.55-6.04.83-9.07.32-3.44.66-6.87.96-10.31.3-3.44.54-6.89.84-10.33.22-2.61.5-5.21.74-7.81.31-3.33.64-6.66.93-10,.3-3.44.53-6.89.82-10.33.22-2.61.49-5.21.74-7.81.32-3.44.66-6.87.96-10.31.3-3.44.55-6.89.84-10.33.21-2.5.46-5,.7-7.5.32-3.44.68-6.87.97-10.31.3-3.44.53-6.89.83-10.33.22-2.61.49-5.21.74-7.81.32-3.44.66-6.87.96-10.31.3-3.44.55-6.89.84-10.33.21-2.5.46-5,.7-7.5.32-3.44.67-6.87.97-10.31.3-3.44.54-6.89.83-10.33.21-2.5.45-5,.69-7.5.32-3.33.68-6.66.97-10,.31-3.54.53-7.1.84-10.64.57-6.57,1.18-13.13,1.77-19.69.28-3.13.55-6.25.84-9.38.32-3.44.67-6.87.97-10.31.3-3.34.52-6.68.83-10.01.53-5.83,1.13-11.66,1.65-17.5.52-5.84.95-11.68,1.44-17.52.23-2.71.5-5.42.76-8.13.33-3.44.68-6.87.98-10.31.3-3.44.53-6.89.82-10.33.22-2.61.49-5.21.74-7.81.32-3.44.66-6.87.96-10.31.3-3.44.54-6.89.84-10.33.57-6.46,1.15-12.92,1.75-19.38.33-3.54.69-7.08,1.03-10.62.25-2.6.49-5.21.69-7.82.09-1.22-.39-1.74-1.62-1.81-1.15-.07-2.3-.05-3.45-.05-62.95,0-125.9,0-188.84,0Z"/>
      <path class="cls-1" d="m218.05,532.07c-40.85,0-81.7,0-122.56,0-1.26,0-2.51-.03-3.77-.06-1.08-.03-1.77-.56-2-1.63-.13-.61-.27-1.23-.32-1.85-.27-3.65-.5-7.31-.79-10.96-.3-3.75-.66-7.5-.98-11.26-.28-3.34-.54-6.68-.81-10.01-.6-7.4-1.22-14.81-1.8-22.22-.3-3.86-.51-7.73-.82-11.59-.29-3.65-.61-7.3-.99-10.94-.29-2.81-.26-5.64-.62-8.46-.45-3.52-.57-7.09-.85-10.64-.33-4.07-.68-8.13-1.01-12.2-.28-3.34-.54-6.68-.82-10.01-.6-7.4-1.22-14.81-1.8-22.22-.3-3.86-.52-7.73-.82-11.59-.29-3.65-.66-7.29-.97-10.94-.29-3.34-.54-6.68-.81-10.01-.6-7.4-1.22-14.81-1.8-22.21-.3-3.86-.51-7.73-.82-11.59-.29-3.65-.63-7.3-.99-10.94-.3-3.02-.33-6.06-.69-9.08-.46-3.84-.54-7.72-.85-11.58-.29-3.65-.68-7.29-.99-10.94-.29-3.34-.52-6.68-.79-10.02-.36-4.48-.73-8.97-1.11-13.45-.24-2.82-.14-5.65-.66-8.45-.32-1.75.33-3.06,1.96-3.86,2.63-1.3,5.2-2.72,7.88-3.91,9.42-4.18,19.27-6.99,29.4-8.8,5.35-.95,10.75-1.53,16.18-1.99,5.03-.43,10.04-.52,15.06-.42,4.49.09,8.97.51,13.45,1.02,18.46,2.1,36.45,6.42,54.22,11.71,7.22,2.15,14.32,4.69,21.45,7.15,12.09,4.18,24.35,7.64,36.99,9.72,5.67.93,11.37,1.68,17.06,2.49,11.05,1.57,22.14,1.46,33.22,1.04,6.26-.24,12.48-1.21,18.64-2.44,11.77-2.35,23.09-5.98,33.75-11.55,1.39-.73,2.74-1.52,4.14-2.23.64-.33,1.33.08,1.39.76.05.52.07,1.05.03,1.56-.6,6.98-1.22,13.97-1.82,20.95-.63,7.19-1.23,14.39-1.88,21.58-.53,5.84-1.12,11.67-1.65,17.5-.31,3.44-.52,6.89-.81,10.33-.29,3.44-.64,6.88-.96,10.31-.29,3.13-.56,6.25-.84,9.38-.6,6.77-1.21,13.55-1.79,20.33-.3,3.44-.51,6.89-.81,10.33-.29,3.44-.65,6.88-.97,10.31-.29,3.13-.56,6.25-.83,9.38-.6,6.77-1.21,13.55-1.79,20.32-.29,3.34-.5,6.68-.79,10.02-.32,3.75-.68,7.5-1.03,11.25-.25,2.71-.52,5.42-.75,8.13-.49,5.94-.92,11.89-1.44,17.84-.51,5.84-1.12,11.66-1.65,17.5-.3,3.34-.51,6.68-.79,10.02-.32,3.75-.68,7.5-1.03,11.25-.24,2.61-.51,5.21-.72,7.82-.5,6.05-.96,12.1-1.45,18.15-.22,2.71-.45,5.42-.71,8.13-.08.83-.29,1.65-.49,2.46-.17.67-.65,1.07-1.32,1.18-.51.09-1.04.12-1.56.13-1.05.02-2.09.01-3.14.01-40.85,0-81.7,0-122.56,0Z"/>
    </g>
  </g>
</svg>