<?xml version="1.0" encoding="UTF-8"?>
<svg id="Capa_2" data-name="Capa 2" xmlns="http://www.w3.org/2000/svg" viewBox="0 0 511.78 511.8">
  <defs>
    <style>
      .cls-1 {
        fill: #090a0a;
      }

      .cls-1, .cls-2 {
        stroke-width: 0px;
      }

      .cls-2 {
        fill: #070808;
      }
    </style>
  </defs>
  <g id="Capa_1-2" data-name="Capa 1">
    <g>
      <path class="cls-2" d="m321.86,0c5.1,2.07,10.61,2.91,15.56,5.56,15.1,8.08,24.03,20.65,27.18,37.29,2.41,12.72,4.67,25.49,6.39,38.31,4.11,30.64-24.28,56.31-54.54,49.49-15.85-3.57-31.68-7.25-47.44-11.19-3.65-.91-5.12-.5-6.11,3.38-9.22,36.12-18.62,72.2-27.99,108.28-1.83,7.06-6.46,10.93-12.95,10.94-6.13,0-11.03-3.87-12.64-9.97-.62-2.33-.26-4.55.34-6.86,10.53-40.57,21.01-81.15,31.49-121.73.29-1.12.5-2.26.77-3.39,1.92-8.22,9.39-12.51,17.49-10.14,20.85,6.1,42.11,10.53,63.31,15.12,13.43,2.91,24.68-8.55,22.4-22.19-2.02-12.11-4.14-24.21-6.3-36.3-2.2-12.37-12.94-21.81-25.58-20.44-27.73,3.01-55.59,5.52-82.98,10.93-15.54,3.07-28.35,11.88-37.38,24.82-50.92,72.96-98.52,147.92-135.32,229.23-11.48,25.37-21.77,51.29-29.42,78.03-7.15,24.98,2.82,41.74,27.48,50.5,11.3,4.01,23.15,5.72,34.73,8.57,25.22,6.2,49.08,15.96,72.63,26.78,45.79,21.03,93.93,31.77,144.41,30.6,53.73-1.24,103.61-16.38,150.12-43.03,2.02-1.16,3.99-2.4,6.05-3.47,7.17-3.75,14.53-1.97,18.22,4.35,3.9,6.69,1.83,13.99-5.41,18.28-26.65,15.8-54.69,28.47-84.5,37.02-22.55,6.47-45.49,10.87-68.97,12.1-.79.04-1.69-.16-2.04.9h-43.98c-.44-1.32-1.6-.88-2.5-.97-6.94-.72-13.92-1.15-20.81-2.18-35.9-5.35-70.47-15.28-103.34-30.76-19.5-9.18-39.41-17.17-60.21-22.87-14.52-3.98-29.62-5.66-43.76-11.1-17.92-6.89-32.9-17.28-41.07-35.4C3.05,403.81,1.71,398.75,0,393.85c0-7.33,0-14.66,0-21.99,3.49-12.31,7.6-24.39,11.97-36.44,9.04-24.92,18.87-49.48,30.36-73.37C78.49,186.89,122.9,116.66,170.55,48.4c13.11-18.78,31.11-31.29,53.52-36.54,20.72-4.86,42.07-5.7,63.05-8.91,5.6-.86,11.45-.37,16.75-2.94h17.99Z"/>
      <path class="cls-2" d="m511.78,256.9c-3.28,6.83-8.64,9.42-16.27,9.69-29.6,1.05-55.05,12.23-76.48,32.65-5.65,5.39-12.77,5.12-19.19-.21-21.07-17.48-44.7-29.71-71.95-34.22-30.48-5.05-57.58,3.04-81.89,21.47-20.33,15.42-35.59,35.26-48.89,56.76-1.14,1.84-2.14,3.76-3.37,5.53-4.37,6.27-11.78,7.87-17.94,3.97-5.84-3.71-7.75-11.12-4.14-17.51,5.65-9.99,12.03-19.53,18.93-28.71,15.33-20.4,33.01-38.35,55.28-51.2,37.86-21.84,77.19-22.82,117.48-7.64,15.15,5.71,29.24,13.48,42.3,23.04,2.49,1.82,4.02,2.09,6.66.06,23.95-18.42,50.93-28.69,81.27-30.19,8.31-.41,14.58,1.64,18.2,9.51v7Z"/>
      <path class="cls-1" d="m340.19,443.48c-21.67-.12-40.38-3.64-58.57-9.91-7.32-2.52-10.87-9.8-8.55-16.8,2.1-6.35,9.12-10.1,16.14-7.95,13.85,4.25,27.8,7.82,42.36,8.37,33.41,1.26,62.45-8.94,86.14-32.99,5.95-6.04,13.33-6.82,19-1.71,5.51,4.97,5.76,13,.1,19.1-19.52,21.05-43.81,33.53-71.75,39.23-8.99,1.84-18.12,2.42-24.88,2.65Z"/>
    </g>
  </g>
</svg>