<?xml version="1.0" encoding="UTF-8"?>
<svg id="Capa_2" data-name="Capa 2" xmlns="http://www.w3.org/2000/svg" viewBox="0 0 512 512">
  <defs>
    <style>
      .cls-1 {
        stroke-width: 0px;
      }
    </style>
  </defs>
  <g id="Capa_1-2" data-name="Capa 1">
    <path class="cls-1" d="m512,57v11c-1.48,15.49-7.22,29.65-14.23,43.25-9.9,19.22-22.07,37.04-35.14,54.25-20.39,26.84-42.39,52.34-65.22,77.11-16.78,18.21-33.85,36.16-51,54.02-10.82,11.26-22.04,22.14-33.09,33.17-20.25,20.22-40.51,40.41-61.58,59.81-14.78,13.61-29.53,27.28-44.79,40.33-24.21,20.69-49.01,40.72-76.25,57.41-17.45,10.69-35.36,20.45-55.7,24.66h-26c-3.89-1.4-7.81-2.61-11.33-5-12.5-8.5-20.47-20.59-26.91-33.84C4.46,460.19,1.62,446.24,0,432,0,420.33,0,408.67,0,397c.76-5.58,1.47-11.16,2.29-16.73,2.02-13.66,5.41-27,9.45-40.18,5.36-17.53,12.41-34.36,21.01-50.55,1.9-3.57,4.49-5.19,8.77-5.03,5.83.22,11.57.87,17.3,1.81,14.72,2.42,29.43,4.94,44.15,7.34,11.95,1.95,23.97,3.21,36.03,4.33,9.43.87,18.58.72,27.65-1.6,7.38-1.88,8.45-5.24,4.36-11.52-1.39-2.14-3.09-3.87-5.08-5.42-14.27-11.1-30.45-18.35-47.84-22.68-24.27-6.06-48.46-8.7-71.27,5.47-.72.45-1.51,1.01-2.28.45-.91-.67-.63-1.71-.5-2.73.71-5.59,1.34-11.17,2.53-16.7,4-18.5,12.6-34.08,27.79-45.83,10.14-7.85,22.28-11.79,33.3-17.88,6.81-3.76,13.87-4.48,21.22-3.77,5.1.49,10.16,1.55,15.17,2.67,30.17,6.72,59.32,17.11,89.25,24.7,13.07,3.31,26.19,6.27,39.81,5.47,5.89-.35,11.62-1.72,13.81-7.92,1.94-5.5-1.87-9.48-5.44-12.99-6.1-5.99-13.37-10.41-20.89-14.32-20.48-10.64-42.18-17.77-64.87-21.93-9.31-1.71-18.75-3.23-28.16-2.82-9.19.4-18.66,1.03-26.74,6.6-1.58,1.09-3.15,1.1-2.9-1.27,1.12-10.6,2.94-21.07,8.53-30.4,8.94-14.92,22.95-22.45,39.17-26.96,14.49-4.03,29.91-4.76,43.39-12.38,1.19-.67,2.91-.49,4.39-.56,14.29-.62,27.4,4.63,40.74,8.5,21.99,6.38,43.72,13.74,66.28,17.98,9.17,1.73,18.51,3,27.62.14,7.74-2.42,8.79-8.07,3.1-13.98-7.67-7.96-17.25-12.93-27.36-16.86-27.98-10.88-56.19-20.61-87.04-15.2-.91.16-2.21.05-2.83-.49-.92-.81.09-1.81.57-2.62,13.07-22.24,30.31-37.45,58.19-36.74,8.39.21,17.09,0,25.28-4.12,8.86-4.47,18.36-7.68,27.88-10.67,14.11-4.43,28.42-7.96,43.15-9.59h29c17.95,2.22,34.35,8.28,48.81,19.37,12.67,9.72,23.33,20.71,25.19,37.63Z"/>
  </g>
</svg>