<?xml version="1.0" encoding="UTF-8"?>
<svg id="Capa_2" data-name="Capa 2" xmlns="http://www.w3.org/2000/svg" viewBox="0 0 1015.08 632.2">
  <defs>
    <style>
      .cls-1 {
        fill: #0a0a0b;
      }

      .cls-1, .cls-2, .cls-3 {
        stroke-width: 0px;
      }

      .cls-4, .cls-2 {
        fill: #090a0a;
      }

      .cls-4, .cls-5 {
        stroke: #000;
        stroke-miterlimit: 10;
        stroke-width: 15px;
      }

      .cls-5 {
        fill: #070808;
      }

      .cls-3 {
        fill: #090a0b;
      }
    </style>
  </defs>
  <g id="Capa_1-2" data-name="Capa 1">
    <g>
      <path class="cls-5" d="m1007.32,350.38c0,49.79-.56,99.58.25,149.35.36,22.49-8.67,39.25-25.25,53.02-17.73,14.72-38.27,24.34-59.64,32.32-37.44,13.98-76.29,22.27-115.69,28.28-59.17,9.02-118.7,12.36-178.5,11.09-42.77-.91-85.35-4.25-127.67-10.54-27.53-4.09-54.83-9.4-81.66-16.92-2.65-.74-4.97-.64-7.57.28-39.37,13.94-79.97,19.56-121.58,16.53-70.81-5.16-132.68-31.73-184.86-79.86-51.49-47.5-84.04-106.06-93.95-175.39C-4.5,248.6,29.78,155.65,112.54,81.51c41.78-37.43,91.21-60.67,146.6-69.58,94.37-15.17,178.22,8.74,251.19,70.53,2.04,1.73,3.73,2.51,6.55,2.15,61.55-7.96,123.35-10.39,185.32-7.49,53.48,2.5,106.58,8.36,158.84,20.41,35.24,8.12,69.75,18.39,101.36,36.55,12.01,6.9,23.06,15.1,31.93,25.92,8.49,10.36,13.08,22.02,13.04,35.67-.18,51.58-.07,103.15-.07,154.73h.02Zm-419.84-39.27c.19-152.37-124.36-277.05-276.66-276.86-152.44.19-275.28,123.19-276.68,273.88-1.45,155.39,124.3,278.29,274.32,279.49,152.28,1.22,278.78-122.13,279.02-276.52Zm-50.16-202.23c4.63,5.65,8.74,10.46,12.58,15.47,1.11,1.44,2.27,1.18,3.59,1.21,9.86.16,15.91,8.58,12.73,17.88-.59,1.72-.58,2.98.43,4.55,19.55,30.58,33.31,63.56,40.85,99.09.5,2.34,1.56,3.03,3.9,3.09,9.79.24,19.57.71,29.35,1.04,8.09.27,13.84,5.77,13.86,13.37.02,7.76-5.91,13.49-14.18,13.39-7.99-.09-15.99-.55-23.98-.64-1.32-.01-4.05-1.61-3.84,1.75.14,2.24-.44,4.75,3.65,4.86,21.37.57,42.74.76,64.12.19,53.55-1.42,106.75-6.23,159.29-16.98,31.74-6.5,62.97-14.83,92.49-28.52,14.8-6.86,29.09-14.65,40.19-27.03,10.8-12.04,10.76-23.61.13-35.74-7.19-8.2-16.06-14.25-25.47-19.54-22.24-12.5-46.14-20.77-70.65-27.41-60.6-16.4-122.57-23.05-185.1-25.41-40.68-1.54-81.34-.65-121.94,2.45-10.43.79-20.83,1.88-31.98,2.91Zm443.19,340.89c-9.98,7.78-20,13.77-30.49,18.99-10.49,5.22-21.28,9.73-32.32,13.62-47.96,16.91-97.66,25.67-147.98,31.37-33.31,3.77-66.75,5.69-100.28,6.23-42.93.69-85.75-1.19-128.44-5.65-3.45-.36-5.53.38-7.81,2.87-15.26,16.62-32.26,31.24-50.85,44.03-8.71,5.99-17.79,11.39-27.44,16.91,1.83.47,3.01.81,4.21,1.07,33.31,7.22,67.02,11.78,100.95,14.73,33.68,2.93,67.43,4.08,101.24,3.79,60.79-.53,121.15-5.39,180.77-17.76,31.06-6.44,61.58-14.73,90.45-28.2,14.41-6.72,28.27-14.37,39.26-26.24,4.58-4.95,8.53-10.51,8.63-17.43.28-19.13.1-38.27.1-58.35Zm-423.77,39.05c1.3.23,2.21.46,3.12.53,8.79.68,17.58,1.47,26.39,1.98,46.58,2.66,93.15,2.63,139.72-.53,42.54-2.89,84.73-8.15,126.35-17.59,29.72-6.74,58.91-15.16,86.28-28.91,12.73-6.39,24.88-13.69,34.37-24.64,5.06-5.84,7.78-12.43,7.67-20.34-.22-16.27-.08-32.54-.09-48.81,0-1.44,0-2.87,0-5.01-7.28,5.66-14.27,10.26-21.61,14.32-24.01,13.28-49.74,22.11-76.12,29.15-62.37,16.64-126.1,23.61-190.4,26.22-30.59,1.24-61.21,1.09-91.79-.63-3.53-.2-4.92.97-6.11,4.14-7.49,19.91-17.1,38.77-28.69,56.62-2.9,4.47-5.94,8.84-9.09,13.52Zm423.84-247.81c-3.17,2.29-5.46,4.04-7.84,5.66-22.41,15.34-47.39,25.05-73.15,32.9-55.38,16.87-112.33,24.72-169.88,29.03-37.44,2.8-74.93,3.17-112.45,2.21-2.84-.07-3.11,1-3.09,3.32.11,12.29-.89,24.51-2.49,36.69-1.48,11.21-3.46,22.33-6.36,33.25-.9,3.37-.12,4.2,3.24,4.11,4.54-.11,9.09.36,13.64.46,66.03,1.52,131.75-1.71,196.91-13.07,36.01-6.28,71.48-14.65,105.28-28.95,16.16-6.84,31.7-14.79,44.65-27,7.67-7.23,12.09-15.64,11.66-26.65-.51-13.08-.12-26.2-.12-39.3,0-3.94,0-7.89,0-12.66Z"/>
      <path class="cls-4" d="m324.29,232.88c0,18.89.07,37.79-.08,56.68-.02,3.08.72,3.93,3.86,3.9,11.42-.09,22.95-.96,34.13,2.28,33.09,9.61,52.94,31.91,60.95,64.92,8.55,35.26-6.22,73.11-35.98,93.31-13.23,8.98-27.89,13.57-43.93,13.57-5.1,0-10.21.17-15.3-.06-2.86-.13-3.73.66-3.7,3.62.16,15.86.11,31.72.07,47.58-.02,6.68-3.6,11.72-9.43,13.56-5.5,1.74-11.28-.07-14.77-4.62-2.3-3-2.82-6.48-2.82-10.14.02-15.31-.09-30.62.1-45.92.04-3.24-.77-4.1-4.04-4.09-27.86.13-55.71.11-83.57.05-6.96-.01-12.18-4.48-13.41-11.13-1.15-6.23,2.48-12.45,8.61-14.83,2.66-1.03,5.43-.79,8.17-.8,26.75-.03,53.51-.12,80.26.03,3.45.02,3.98-1.07,3.97-4.16-.09-37.51-.1-75.02.04-112.53.01-3.41-1.12-3.98-4.18-3.95-12.11.13-24.32.87-36.09-2.92-32.09-10.33-51.39-32.56-58.85-64.98-8.99-39.08,9.86-79.76,44.5-97.63,12.54-6.47,25.93-8.91,39.94-8.76,4.77.05,11.15,2.08,13.85-.85,2.36-2.56.7-8.88.72-13.53.04-9.1.01-18.2.03-27.3.02-9.28,5.43-15.17,13.8-15.06,7.99.11,13.17,6.1,13.17,15.28.01,11.86,0,23.72,0,35.58q0,5.95,5.75,5.95c26.62,0,53.23-.01,79.85,0,7.44,0,12.57,3.06,14.63,8.59,3.37,9.03-3.05,18.28-12.9,18.32-20.41.08-40.82.03-61.23.03-7.58,0-15.17.13-22.75-.07-2.74-.07-3.42.74-3.4,3.42.11,18.89.06,37.79.06,56.68Zm0,147.59c0,18.88.06,37.75-.06,56.63-.02,2.81.63,3.9,3.61,3.73,4.4-.25,8.81-.11,13.22-.05,9.56.12,18.57-1.93,26.95-6.57,21.46-11.9,33.58-37.42,29.88-62.85-3.63-24.94-20.77-44.49-43.81-49.91-8.7-2.05-17.56-.84-26.34-1.29-3.03-.15-3.53.93-3.52,3.69.12,18.87.07,37.75.05,56.63Zm-27-147.44c0-18.88-.07-37.76.07-56.64.02-2.91-.74-3.74-3.64-3.61-5.5.25-11.02.03-16.53.12-8.86.14-17.1,2.58-24.71,7.06-21.17,12.44-33.13,38.63-28.65,63.05,4.25,23.15,16.57,39.85,39.23,47.91,9.56,3.4,19.6,2.2,29.49,2.55,3.62.13,4.9-.64,4.85-4.62-.24-18.6-.11-37.2-.11-55.81Z"/>
      <path class="cls-2" d="m909.21,200.25c-.07,9.08-4.68,17.62-11.88,24.94-7.54,7.66-16.54,13.25-26.21,17.73-6.32,2.93-13.87.07-17-5.97-3.42-6.59-1.35-14.25,5.09-17.93,6.34-3.62,12.9-6.85,18.2-12.03,6.39-6.23,6.4-10.04-.05-16.27-4-3.87-8.7-6.73-13.51-9.44-7.36-4.15-9.87-11.98-6.08-18.92,3.58-6.56,11.64-8.61,19-4.6,11.25,6.12,21.57,13.34,28.09,24.84,2.85,5.03,4.2,10.44,4.35,17.65Z"/>
      <path class="cls-3" d="m822.7,232.5c7.12.1,12.48,4.96,13.46,11.91.91,6.42-3.08,12.62-9.66,14.44-12.59,3.48-25.37,6.12-38.23,8.4-2.84.51-5.68,1.08-8.54,1.45-7,.89-13.57-3.91-14.89-10.77-1.34-6.93,2.86-14.14,9.79-15.46,15.53-2.95,31.06-5.86,46.36-9.85.65-.17,1.37-.1,1.71-.12Z"/>
      <path class="cls-2" d="m621.99,147.02c-7.16.36-14.31.83-21.47,1.06-8.16.26-14.12-4.97-14.59-12.55-.47-7.56,4.92-13.54,13-14.14,15.26-1.14,30.55-1.66,45.85-1.6,7.92.03,13.91,5.91,13.83,13.36-.08,7.6-5.89,13.2-13.89,13.36-3.86.08-7.72.15-11.57.18-3.72.03-7.44,0-11.15,0,0,.11,0,.22,0,.32Z"/>
      <path class="cls-3" d="m695.07,277.43c-2.93,0-5.69.08-8.44-.01-7.34-.24-12.85-5.68-13.05-12.79-.21-7.39,5.02-13.53,12.41-13.89,15.28-.75,30.53-1.67,45.77-3,7.54-.65,13.63,4.91,14.21,12.46.58,7.42-4.59,13.66-12.33,14.33-12.9,1.12-25.82,1.96-38.57,2.9Z"/>
      <path class="cls-1" d="m703.24,120.86c10.98.86,21.98,1.6,32.95,2.62,8.75.81,13.74,5.92,13.72,13.55-.02,7.69-6.01,13.99-13.69,13.37-15.65-1.26-31.31-2.34-46.98-3.28-7.05-.42-12.04-6.88-11.67-14.09.36-7.03,5.75-12.33,12.87-12.51,4.27-.11,8.54-.02,12.8-.02,0,.12,0,.24,0,.36Z"/>
      <path class="cls-2" d="m768.66,142.62c.19-8.6,7.43-14.21,16.62-12.63,7.33,1.26,14.64,2.66,21.9,4.26,7.52,1.66,15.01,3.53,22.45,5.51,7.7,2.05,11.97,9.18,10.09,16.44-1.93,7.47-9.17,11.53-17.12,9.43-14.11-3.73-28.37-6.77-42.75-9.29-7.01-1.23-11.35-6.67-11.19-13.71Z"/>
    </g>
  </g>
</svg>