<?xml version="1.0" encoding="UTF-8"?>
<svg id="Capa_2" data-name="Capa 2" xmlns="http://www.w3.org/2000/svg" viewBox="0 0 658.8 635.43">
  <defs>
    <style>
      .cls-1 {
        fill: #010101;
        stroke-width: 0px;
      }

      .cls-2 {
        fill: none;
        stroke: #010101;
        stroke-linecap: round;
        stroke-linejoin: round;
        stroke-width: 19px;
      }
    </style>
  </defs>
  <g id="Capa_1-2" data-name="Capa 1">
    <g>
      <g id="Capa_1-2" data-name="Capa 1-2">
        <g>
          <path class="cls-2" d="m490.47,67.83c-.61,16.48-3.8,32.65-11.8,47.63-7.26,13.59-16.65,26.33-24.32,39.78-9.23,16.2-21.26,31.18-28.38,48.28-2.84,6.84-6.31,13.85-5.57,21.05,1.54,14.99-2.97,29.65-1.91,44.63,1.06,15.02.23,30.14.23,45.21v44.61c0,1.65-.67,3.58.1,4.91,6.2,10.82,2.62,22.94,6.75,34.22,3.97,10.87,6.94,22.16,9.7,33.37,2.96,12.06,6.94,23.91,6.87,36.53-.07,12.08-3.67,23.36-7.54,34.68-4.31,12.61-10.2,24.79-13.09,37.79-1.94,8.76-2.09,17.36.1,26.03,1.93,7.65,4.33,15.22,5.7,22.94,2.88,16.21,17.83,24.98,35.6,25.46,6.7.17,13.13-.82,19.55-2.01,4.99-.92,9.03-.61,13.16,2.45,4.7,3.46,10.42,5.7,16.57,6.91,8.47,1.69,10.42,3.62,24.24,3.62,12.8,0,24.37-3.9,36.12-12.09,4.62-3.22,11.38-1.49,17.21-.22,8.67,1.88,17.55,2.26,26.05-.07,12.67-3.48,21.6-10.22,24.02-22.19,2.32-11.41,6.84-22.49,7.83-34.09,1.16-13.41-3.17-26-8.55-38.42-2.81-6.48-4.62-13.28-7.36-19.79-9.28-21.93-6.65-43.78.01-65.7,4.52-14.83,10.42-29.55,12.52-44.66,1.61-11.52,5.13-22.86,5.02-34.65-.33-34.69-.12-69.39-.12-104.08,0-.62.2-1.3-.03-1.85-4.8-11.26,0-23.21-4-34.78-4.16-12.01-10.18-23.08-16.99-34-12.1-19.4-24.69-38.6-36.08-58.3-9.62-16.63-15.07-34.41-14.65-53.22"/>
          <path class="cls-2" d="m577.44,67.21c2.17-.83,4.26-1.91,6.54-2.43,6.83-1.59,8.65-5.87,8.67-11.2.03-10.32.16-20.66-.04-30.98-.14-7.61-2.83-9.4-11.54-10.61-19.97-2.78-40.08-2.68-60.17-2.29-12.09.24-24.18,1.4-36.24,2.43-6.17.53-9.33,4-9.39,9.23-.12,11.15-.42,22.32.09,33.46.39,8.5,10.28,13.31,20.18,10.57,3.49-.97,7.12-1.34,10.86-1.31,18.12.1,36.24.11,54.36,0,5.67-.04,11,.72,15.94,3.13"/>
          <path class="cls-2" d="m644.85,235.72c-4.35.21-8.7.59-13.05.59-65.23.04-130.46.04-195.68,0-4.35,0-8.7-.38-13.05-.59"/>
          <path class="cls-2" d="m644.12,373.88c-11.77-1.78-23.66-1.21-35.51-1.23-49.76-.02-99.54-.02-149.3,0-11.86,0-23.74-.56-35.51,1.23"/>
        </g>
      </g>
      <g id="Capa_1-2-2" data-name="Capa 1-2">
        <g>
          <path class="cls-1" d="m186.61,235.98c45.13-.2,85.1,5.23,123.68,19.17,19.47,7.04,37.91,16.17,53.63,29.86,10.48,9.13,14.2,20.96,11.05,34.59-1.72,7.46-6.35,12.94-13.37,16-4.01,1.74-5.88,4.49-6.91,8.64-4.32,17.27-11.88,33.34-18.94,49.59-13.18,30.31-28.79,59.46-42.58,89.49-11.22,24.46-20.48,49.69-30.28,74.71-4.5,11.47-9.48,22.71-16.04,33.22-8.19,13.14-20.28,19.55-35.33,21.22-14.23,1.58-28.53,1.52-42.76.77-15.28-.81-26.88-8.46-34.84-21.66-8.39-13.93-15.3-28.58-22.15-43.29-16.56-35.52-33.38-70.92-49.6-106.6-14.04-30.89-27.27-62.15-37.47-94.59-1.77-5.62-5.06-9.55-10.16-12.55-15.23-8.96-18.75-24.35-9.39-39.39,6.16-9.91,15.36-16.3,25.19-21.99,28.72-16.63,59.94-25.99,92.41-31.62,22.54-3.91,45.23-5.99,63.86-5.58Zm-4.04,49.89c-3.61,0-7.21.04-10.82,0s-7.24.1-10.8-.32c-4.06-.48-4.65,1.41-3.95,4.69.8,3.7.85,7.47.59,11.21-.69,9.47-6.32,16.89-14.49,19.27-7.73,2.25-16.78-1.06-22.37-8.15-3.67-4.65-5.44-10-5.76-15.83-.15-2.94-1.31-3.54-4.04-2.78-15.71,4.4-30.68,10.55-44.51,19.22-10.54,6.6-10.46,6.72-7.14,18.51.08.29.13.59.22.87,4.34,14.54,8.5,29.14,15.54,42.68,2.51,4.82,5.36,9.22,10.66,11.75,13.5,6.42,16.91,14.22,11.9,28.55-2.42,6.94-1.81,13.11,1.09,19.54,11.57,25.6,24.72,50.44,36.57,75.88,1.88,4.04,4.22,6.39,8.88,6.92,16.12,1.81,24.58,18.27,19.29,33.56-2.99,8.64-1.3,13.29,6.56,18.08,6.45,3.93,13.66,5.67,21.02,6.06,15.93.84,31.51-3.53,39.36-20.88,5.61-12.39,9.5-25.29,12.21-38.55,1.25-6.16.23-11.88-4.53-16.64-4.14-4.15-6.47-9.29-7.45-15.11-2.84-16.84,10.66-28.51,26.62-22.86,2.14.76,3.89.52,5.44-.8,1.81-1.55,3.59-3.23,5.05-5.1,10.58-13.62,18.14-29,25.3-44.55,10.46-22.67,19.62-45.82,24.97-70.32,3.8-17.42.15-25.11-15.78-33.16-1.07-.54-2.16-1.05-3.26-1.52-13.95-6.1-28.53-10.24-43.3-13.75-6.48-1.54-6.59-1.34-7.7,5.34-2.27,13.71-16.8,20.3-28.59,12.94-7.48-4.68-11.63-11.18-10.65-20.29.38-3.52-.87-4.7-4.53-4.54-7.19.31-14.41.09-21.63.1h.03Zm6.34-35.67c-19.8.62-39.56,1.93-59.11,5.35-30.14,5.27-59.53,12.97-86.8,27.36-8.14,4.3-15.78,9.34-21.79,16.46-3.18,3.76-5.58,7.93-4.98,13.09s2.69,9.78,7.46,12.14,8.64-.62,12.19-3.54c2.55-2.1,5.14-4.18,7.46-6.52,15.35-15.38,34.01-25.14,54.52-31.33,55.2-16.66,110.9-17.06,166.74-3.49,26.46,6.43,50.92,17.09,70.55,36.88,2.73,2.76,5.99,5.03,9.54,6.73,5.4,2.6,9.5,1.49,12.9-3.38,4.62-6.62,4.04-13.14-2.02-20.05-8.93-10.19-20.56-16.5-32.69-21.87-42.64-18.89-87.58-26.88-133.96-27.83v-.02Zm-.96,350.07c5.02.42,10.07-.45,15.14-.96,16.6-1.66,29.02-9.52,37.02-24.41,5.56-10.36,10.09-21.14,14.11-32.14,7.57-20.72,14.91-41.53,24.04-61.67,12.65-27.91,27.38-54.81,40.06-82.69,7.53-16.53,15.14-33.05,20.11-50.59.78-2.73,1.26-5.55,1.66-8.37.3-2.12-.39-3.98-2.77-4.47-2.27-.47-3.26,1.13-3.88,2.93-.68,1.98-1.27,4.01-1.76,6.05-1.99,8.32-4.17,16.6-6.88,24.72-10.84,32.51-26,62.97-44.01,92.04-11.15,17.99-20.18,36.74-24.29,57.76-2.88,14.74-7.4,29.09-14.21,42.6-8.37,16.61-21.08,27.12-40.19,28.51-16.11,1.17-31.62-.23-44.39-11.72-7.26-6.54-12.34-14.71-16.61-23.37-17.82-36.08-35.64-72.16-53.25-108.34-10.91-22.41-21.06-45.14-28.73-68.95-4.46-13.85-9.96-27.36-15.07-41-.54-1.45-.96-3.72-2.94-3.52-2.23.23-2.12,2.62-2.32,4.33-.69,5.72,1.32,10.95,3.26,16.17,12.34,33.07,26.55,65.37,40.88,97.61,18.85,42.39,37.96,84.65,58.95,126.06,6.94,13.7,17.74,20.15,32.03,22.42,4.6.73,9.22,1.33,14.01.98h0Zm-40.97-66.12c-2.66-.03-4.44.94-4.47,3.52-.05,2.97,1.66,4.85,4.61,4.99,2.45.12,4.53-1.06,4.6-3.82.08-3.17-2.3-4.19-4.73-4.71h0Z"/>
          <path class="cls-1" d="m218.35,466.31c-.86,13.61-8.13,23.92-21.02,30.17-12.44,6.04-23.78,2.89-33.77-5.68-10.74-9.2-15.93-20.95-13.68-35.22,3.84-24.47,30.43-36,50.92-22.07,11.12,7.56,17.06,18.24,17.56,32.79h0Zm-48.8-15.68c-.03,3.24,1.43,5.34,3.47,5.46,2.33.15,6.81-4.16,6.45-6.53-.4-2.61-2.45-3.75-4.89-3.66-3.16.13-4.77,2.09-5.04,4.71h0Zm28.15,7.96c-.17-1.82-1.69-4.18-4.95-4.48-2.61-.24-3.51,1.85-3.54,4.17-.06,3.33,1.76,4.85,4.96,4.98,2.33.1,3.76-.74,3.52-4.67h0Z"/>
          <path class="cls-1" d="m231.57,357.56c-.78,11.2-6.91,21.89-19.62,27.83-12.21,5.7-23.89,4.18-34.54-4.45-13.84-11.21-19.27-28.03-13.26-42,5.63-13.08,16.06-19.77,29.86-20.48,14.04-.72,24.95,5.54,32.3,17.61,3.5,5.75,5.44,12.02,5.27,21.49h0Zm-41.18-11.39c-.34-2.47-.63-5.01-3.98-4.91-3.18.1-4.99,1.94-5.25,5.05-.24,3.03,1.39,4.94,4.37,5.16,3.62.26,4.27-2.55,4.86-5.28h0Zm17.74-3.24c-3.25.08-5.22,1.51-5.05,4.59.17,3.06,2.39,4.24,5.28,4.17,2.97-.06,4.85-1.36,4.71-4.59-.14-3.32-2.42-4.08-4.95-4.17h0Z"/>
          <path class="cls-1" d="m245.46,427.7c-10.87.05-19.96-5.99-23.12-15.29-3.18-9.36.53-20.2,9.22-26.66,8.56-6.36,17.78-7.95,27.39-2.72,8.9,4.84,13.67,12.38,13.23,22.77-.48,11.36-10.89,21.02-23.58,21.89-1.05.07-2.1,0-3.15,0h0Z"/>
          <path class="cls-1" d="m279.71,314.51c13.62-.02,25.74,12.13,25.62,25.68-.11,12.28-12.03,23.21-25.31,23.24-13.49.02-24.39-10.55-24.47-23.73-.08-13.65,10.98-25.19,24.17-25.2h0Z"/>
          <path class="cls-1" d="m108.72,329.81c13.01.17,24.63,11.94,24.34,24.64-.3,13-12.72,24.67-25.91,24.34-12.82-.32-23.62-11.79-23.46-24.92.16-13.67,11.16-24.24,25.03-24.06Z"/>
          <path class="cls-1" d="m159.48,413.03c-.02,12.43-12.12,23.55-25.56,23.48-13.97-.08-24.94-10.81-24.9-24.36.04-12.57,11.21-22.92,24.69-22.9,13.66.04,25.78,11.22,25.77,23.77h0Z"/>
          <path class="cls-1" d="m203.84,510.07c13.97,0,24.94,9.79,25.02,22.36.08,13.43-11.07,24.44-24.76,24.41-14.19-.02-25.35-9.97-25.29-22.55.06-13.22,11.42-24.21,25.03-24.21Z"/>
        </g>
      </g>
    </g>
  </g>
</svg>