<?xml version="1.0" encoding="UTF-8"?>
<svg id="Capa_2" data-name="Capa 2" xmlns="http://www.w3.org/2000/svg" viewBox="0 0 56.41 56.33">
  <defs>
    <style>
      .cls-1 {
        stroke: #1d1d1b;
        stroke-miterlimit: 10;
        stroke-width: .5px;
      }

      .cls-2, .cls-3 {
        stroke-width: 0px;
      }

      .cls-3 {
        fill: none;
      }
    </style>
  </defs>
  <g id="Capa_1-2" data-name="Capa 1">
    <g>
      <g>
        <g>
          <path class="cls-2" d="m14.43,51.17s-.02,0-.03,0c0,0,.02,0,.03,0Z"/>
          <path class="cls-2" d="m15.3,50.96c-.28.09-.56.17-.87.21.31-.03.6-.1.87-.21Z"/>
          <path class="cls-2" d="m14.22,51.2c.06,0,.12-.02.18-.03-.09.01-.18.02-.27.02.03,0,.06,0,.09,0Z"/>
        </g>
        <path class="cls-2" d="m56.39,47.24c.09-1.6-.39-3.17-1.51-4.46-1.41-2.04-3.68-3.44-6.28-3.69-.19-.15-.37-.32-.51-.5-.33-2.51-.89-5.41-1.22-8.29-.37-3.3-.99-6.58-1.45-9.87-.13-.95-.8-3.52.05-3.62.89-.1,2.03-.09,2.84-.09,2.02,0,2.63-.54,3.6,1.56.39.85.93,2.14.86,3.04-1.13,0-2.01.05-3.26.01-1.43-.05-1.21,1.86-1.25,2.86-.05,1.3,1.28,1.66,2.44,1.68,5,.1,5.39-.6,5.41-5.66.03-6.88.02-6.84-7.22-7-1.53-.03-3.92.96-4.42-1.08-1.26-5.14-4.95-5.12-8.93-4.88-1.51.09-3.58-.66-3.41,2.19.14,2.52,2.06,1.84,3.33,1.73,3.64-.32,5.05.99,5.14,5.6.14,7.21,1,14.38,2.71,21.38.21.84.34,1.45.43,1.92-1.83.97-3.27,2.59-4.01,4.55l-.21.15c-4.47,0-13.57,0-17.12,0-1.16-3.4-4.38-5.84-8.17-5.84-4.01,0-7.37,2.73-8.35,6.43-.39-.02-.74-.06-1.04-.13-1.61-6.8-.98-7.58,2.71-12.13,3.39-4.16,7.58-3.38,11.8-3.39q10.54-.03,10.78,10.17c.01.5.01,1,.01,1.5-.01,1.25.12,2.25,1.8,2.32,1.9.08,2.2-.93,2.18-2.46-.04-3.17-.07-6.33,0-9.5.1-4.16-1.83-6.09-6.02-6.05-8.17.08-16.33-.02-24.5.07-1.24.01-3.15-.95-3.48,1.54-.42,3.19,2.19,2.09,4.58,3.02C-1.66,34.26.36,39.97.14,45.1c-.1,2.32,1.54,4.05,3.44,4.33.72.11,1.49.16,2.24.18.92,3.78,4.32,6.59,8.39,6.59,4.36,0,7.96-3.24,8.55-7.44h5.02l7.45-.03s2.27,0,3.98,0c.52,4.28,4.15,7.6,8.57,7.6,4.77,0,8.64-3.87,8.64-8.64,0-.15-.01-.3-.02-.45Zm-42.18,2.99c-1.66,0-3-1.34-3-3s1.34-3,3-3,3,1.34,3,3-1.34,3-3,3Zm33.88,0c-1.66,0-3-1.34-3-3s1.34-3,3-3,3,1.34,3,3-1.34,3-3,3Z"/>
      </g>
      <g>
        <path class="cls-3" d="m19.87,3.25h-3.59l.02,4h-5.02l.02-4h-4.57c-1.34,0-2.43,1.03-2.43,2.3v12.41c0,1.27,1.09,2.3,2.43,2.3h13.14c1.34,0,2.43-1.03,2.43-2.3V5.55c0-1.27-1.09-2.3-2.43-2.3Z"/>
        <g>
          <path class="cls-3" d="m19.87,3.25h-3.59l.02,4h-5.02l.02-4h-4.57c-1.34,0-2.43,1.03-2.43,2.3v12.41c0,1.27,1.09,2.3,2.43,2.3h13.14c1.34,0,2.43-1.03,2.43-2.3V5.55c0-1.27-1.09-2.3-2.43-2.3Z"/>
          <path class="cls-1" d="m22.09.25H4.5C2.73.25,1.3,1.62,1.3,3.32v16.86c0,1.7,1.43,3.07,3.2,3.07h17.59c1.77,0,3.2-1.37,3.2-3.07V3.32c0-1.7-1.43-3.07-3.2-3.07Zm.2,17.7c0,1.27-1.09,2.3-2.43,2.3H6.73c-1.34,0-2.43-1.03-2.43-2.3V5.55c0-1.27,1.09-2.3,2.43-2.3h3.57v4s6-.02,6-.02l-.02-3.98h3.59c1.34,0,2.43,1.03,2.43,2.3v12.41Z"/>
        </g>
      </g>
    </g>
  </g>
</svg>