<?xml version="1.0" encoding="UTF-8"?>
<svg id="Capa_2" data-name="Capa 2" xmlns="http://www.w3.org/2000/svg" viewBox="0 0 979.81 979.81">
  <defs>
    <style>
      .cls-1 {
        fill: #030304;
        stroke-width: 0px;
      }
    </style>
  </defs>
  <g id="Capa_1-2" data-name="Capa 1">
    <g>
      <path class="cls-1" d="m979.81,447.91v83.98c-1.06.32-.93,1.22-.96,2.02-1.08,29.73-6.91,58.6-15.03,87.15-21.62,76.08-58.79,143.51-112.5,201.55-60.06,64.9-132.59,110.47-216.93,136.98-30.12,9.47-60.77,16.75-92.52,18.58-5.63.32-11.49-.56-16.98,1.64h-70.99c-1.15-1.88-2.99-.89-4.49-.98-11.96-.71-23.95-1.37-35.77-3.29-34.62-5.64-68.29-14.95-100.9-27.87-78.95-31.28-146.15-79.07-200.15-144.72C48.67,725.23,11.13,636.35,1.71,535.86c-.4-4.31.43-8.86-1.71-12.96v-60.99c1.32-.45.89-1.59.97-2.51,1.06-11.93,1.72-23.91,3.23-35.79,5.54-43.68,16.7-85.93,34.45-126.23C94,171.66,186.22,83.95,313.37,32.78c39.86-16.05,81.21-26.69,124.07-31.15,4.15-.43,8.53.49,12.47-1.63h66.99c1.14,1.9,2.99.88,4.48.95,16.14.76,32.3,1.72,48.22,4.36,55.11,9.12,107.24,27.21,156.18,54.11,78.12,42.94,140.68,102.38,186.19,179.12,35.88,60.51,59.29,125.47,66.17,195.92.44,4.47-.43,9.17,1.66,13.45Zm-489.1,462.56c230.93,1.97,419.65-191.29,420.7-418.47,1.02-221.43-178.89-423.93-422.85-422.54-233.08,1.33-418.59,187.66-418.58,421.34,0,235.55,194.92,422.02,420.73,419.67Z"/>
      <path class="cls-1" d="m488.89,767.37c-81.09.83-153.26-26.66-218.86-73.62-8-5.73-15.48-12.16-21.69-19.85-8.52-10.55-11.79-22.38-6.52-35.37,5.28-13.01,15.84-19.65,29.25-22,6.17-1.08,11.77,1.32,17.13,4.12,8.88,4.64,16.79,10.73,24.8,16.66,29.45,21.8,61.26,39.39,96.59,49.21,43.24,12.02,87.05,14.94,131.81,6.93,48.29-8.64,90.5-29.42,129.43-58.17,6.42-4.74,12.85-9.46,19.78-13.44,14.39-8.27,26.28-7.02,38.77,4.02,15.79,13.96,16.96,31.58,3.01,47.87-11.39,13.3-25.66,23.14-40.06,32.77-40.76,27.24-85.01,46.1-133.36,54.93-22.98,4.2-46.19,5.96-70.09,5.94Z"/>
      <path class="cls-1" d="m322.05,475.09c-39.7,1.94-69.78-33.73-69.78-69.94,0-37.65,31.37-68.86,69.52-69.05,38.04-.19,69.71,30.62,69.72,68.05.02,41.58-31.91,72.52-69.47,70.94Z"/>
      <path class="cls-1" d="m659.12,475.1c-37.44,1.51-69.92-29.38-69.41-71.27.46-37.47,31.24-67.7,69.45-67.52,38.75.19,69.83,31.31,69.63,69.79-.18,33.71-28.7,70.91-69.67,69Z"/>
    </g>
  </g>
</svg>