<?xml version="1.0" encoding="UTF-8"?>
<svg id="Capa_2" data-name="Capa 2" xmlns="http://www.w3.org/2000/svg" viewBox="0 0 417.16 419.13">
  <defs>
    <style>
      .cls-1 {
        stroke-width: 0px;
      }
    </style>
  </defs>
  <g id="Capa_1-2" data-name="Capa 1">
    <g>
      <path class="cls-1" d="m207.01.06c50.06-.22,94.4,5.8,137.2,21.27,21.6,7.81,42.05,17.94,59.49,33.13,11.63,10.13,15.75,23.25,12.26,38.37-1.91,8.28-7.04,14.36-14.83,17.75-4.45,1.93-6.52,4.98-7.67,9.59-4.79,19.16-13.18,36.99-21.01,55.01-14.62,33.62-31.94,65.96-47.23,99.27-12.45,27.13-22.72,55.12-33.59,82.88-4.99,12.72-10.52,25.19-17.79,36.85-9.09,14.58-22.5,21.69-39.19,23.54-15.79,1.75-31.65,1.69-47.43.85-16.95-.9-29.82-9.38-38.65-24.03-9.31-15.45-16.97-31.71-24.57-48.02-18.37-39.4-37.03-78.67-55.02-118.25-15.57-34.27-30.25-68.95-41.57-104.93-1.96-6.24-5.61-10.59-11.27-13.92C-.76,99.48-4.66,82.41,5.72,65.72c6.83-10.99,17.04-18.08,27.94-24.39C65.52,22.88,100.15,12.5,136.17,6.25,161.17,1.91,186.34-.4,207.01.06Zm-4.48,55.34c-4,0-8,.04-12-.01-4-.05-8.03.11-11.98-.36-4.5-.53-5.16,1.56-4.38,5.2.89,4.11.94,8.29.65,12.44-.76,10.5-7.01,18.74-16.07,21.38-8.57,2.5-18.62-1.18-24.82-9.04-4.07-5.16-6.04-11.09-6.39-17.56-.17-3.26-1.45-3.93-4.48-3.08-17.43,4.88-34.03,11.7-49.38,21.32-11.69,7.32-11.6,7.46-7.92,20.53.09.32.14.65.24.97,4.81,16.13,9.43,32.33,17.24,47.35,2.78,5.35,5.95,10.23,11.83,13.03,14.98,7.12,18.76,15.77,13.2,31.67-2.69,7.7-2.01,14.54,1.21,21.68,12.83,28.4,27.42,55.95,40.57,84.18,2.09,4.48,4.68,7.09,9.85,7.68,17.88,2.01,27.27,20.27,21.4,37.23-3.32,9.58-1.44,14.74,7.28,20.06,7.15,4.36,15.15,6.29,23.32,6.72,17.67.93,34.96-3.92,43.66-23.16,6.22-13.75,10.54-28.05,13.54-42.77,1.39-6.83.26-13.18-5.02-18.46-4.59-4.6-7.18-10.31-8.27-16.76-3.15-18.68,11.82-31.63,29.53-25.36,2.37.84,4.31.58,6.03-.89,2.01-1.72,3.98-3.58,5.6-5.66,11.74-15.11,20.12-32.17,28.07-49.42,11.6-25.15,21.77-50.83,27.7-78.01,4.21-19.32.17-27.85-17.51-36.79-1.19-.6-2.4-1.16-3.62-1.69-15.48-6.77-31.65-11.36-48.03-15.25-7.19-1.71-7.31-1.49-8.54,5.92-2.52,15.21-18.64,22.52-31.72,14.35-8.3-5.19-12.9-12.4-11.81-22.51.42-3.9-.97-5.21-5.02-5.04-7.98.34-15.99.1-23.99.11Zm7.03-39.57c-21.97.69-43.88,2.14-65.57,5.94-33.44,5.85-66.04,14.39-96.29,30.35-9.03,4.77-17.5,10.36-24.17,18.26-3.53,4.17-6.19,8.8-5.53,14.52.66,5.72,2.98,10.85,8.28,13.47,5.3,2.62,9.58-.69,13.52-3.93,2.83-2.33,5.7-4.64,8.28-7.23,17.03-17.06,37.73-27.89,60.48-34.75,61.24-18.48,123.03-18.92,184.97-3.87,29.35,7.13,56.49,18.96,78.26,40.91,3.03,3.06,6.64,5.58,10.58,7.47,5.99,2.88,10.54,1.65,14.31-3.75,5.12-7.34,4.48-14.58-2.24-22.24-9.91-11.3-22.81-18.3-36.26-24.26-47.3-20.96-97.15-29.82-148.61-30.87Zm-1.07,388.34c5.57.47,11.17-.5,16.8-1.06,18.42-1.84,32.19-10.56,41.07-27.08,6.17-11.49,11.19-23.45,15.65-35.65,8.4-22.99,16.54-46.07,26.67-68.41,14.03-30.96,30.37-60.8,44.44-91.73,8.35-18.34,16.8-36.66,22.31-56.12.86-3.03,1.4-6.16,1.84-9.28.33-2.35-.43-4.41-3.07-4.96-2.52-.52-3.62,1.25-4.3,3.25-.75,2.2-1.41,4.45-1.95,6.71-2.21,9.23-4.63,18.41-7.63,27.42-12.03,36.06-28.84,69.85-48.82,102.1-12.37,19.96-22.39,40.76-26.95,64.08-3.2,16.35-8.21,32.27-15.76,47.26-9.29,18.43-23.38,30.09-44.58,31.63-17.87,1.3-35.08-.25-49.24-13-8.05-7.25-13.69-16.32-18.43-25.92-19.77-40.02-39.54-80.05-59.07-120.19-12.1-24.86-23.36-50.08-31.87-76.49-4.95-15.36-11.05-30.35-16.72-45.48-.6-1.61-1.07-4.13-3.26-3.9-2.47.26-2.35,2.91-2.57,4.8-.76,6.35,1.46,12.15,3.62,17.94,13.69,36.69,29.45,72.52,45.35,108.28,20.91,47.02,42.11,93.9,65.39,139.84,7.7,15.2,19.68,22.35,35.53,24.87,5.1.81,10.23,1.47,15.54,1.09Zm-45.45-73.35c-2.95-.03-4.92,1.04-4.96,3.91-.05,3.29,1.84,5.38,5.11,5.54,2.72.13,5.03-1.18,5.1-4.24.09-3.52-2.55-4.65-5.25-5.22Z"/>
      <path class="cls-1" d="m242.22,255.57c-.95,15.1-9.02,26.53-23.32,33.47-13.8,6.7-26.38,3.21-37.46-6.3-11.91-10.21-17.67-23.24-15.18-39.07,4.26-27.14,33.76-39.94,56.49-24.48,12.34,8.39,18.92,20.23,19.48,36.38Zm-54.13-17.39c-.03,3.59,1.59,5.92,3.85,6.06,2.59.17,7.55-4.62,7.15-7.24-.44-2.89-2.72-4.16-5.42-4.06-3.5.14-5.29,2.32-5.59,5.23Zm31.23,8.83c-.19-2.02-1.88-4.64-5.49-4.97-2.89-.27-3.89,2.05-3.93,4.63-.07,3.69,1.95,5.38,5.5,5.53,2.58.11,4.17-.82,3.91-5.18Z"/>
      <path class="cls-1" d="m256.89,134.93c-.87,12.42-7.66,24.28-21.77,30.87-13.55,6.32-26.5,4.64-38.32-4.94-15.35-12.44-21.38-31.09-14.71-46.59,6.24-14.51,17.82-21.93,33.13-22.72,15.57-.8,27.68,6.15,35.83,19.54,3.88,6.38,6.04,13.33,5.85,23.84Zm-45.68-12.63c-.38-2.74-.7-5.56-4.42-5.45-3.53.11-5.54,2.15-5.82,5.6-.27,3.36,1.54,5.48,4.85,5.72,4.02.29,4.74-2.83,5.39-5.86Zm19.68-3.59c-3.61.09-5.79,1.68-5.6,5.09.19,3.4,2.65,4.7,5.86,4.63,3.3-.07,5.38-1.51,5.23-5.09-.16-3.68-2.69-4.53-5.49-4.63Z"/>
      <path class="cls-1" d="m272.3,212.74c-12.06.05-22.14-6.64-25.65-16.96-3.53-10.38.59-22.41,10.23-29.58,9.5-7.06,19.72-8.82,30.39-3.02,9.87,5.37,15.16,13.73,14.68,25.26-.53,12.6-12.08,23.32-26.16,24.28-1.16.08-2.33.01-3.49.01Z"/>
      <path class="cls-1" d="m310.29,87.18c15.11-.02,28.55,13.46,28.42,28.49-.12,13.62-13.34,25.75-28.08,25.78-14.97.02-27.06-11.7-27.14-26.32-.09-15.14,12.18-27.94,26.81-27.95Z"/>
      <path class="cls-1" d="m120.6,104.15c14.43.19,27.32,13.24,27,27.33-.33,14.42-14.11,27.37-28.74,27-14.22-.36-26.2-13.08-26.03-27.64.18-15.16,12.38-26.89,27.77-26.69Z"/>
      <path class="cls-1" d="m176.92,196.47c-.02,13.79-13.45,26.13-28.35,26.05-15.5-.09-27.67-11.99-27.62-27.02.04-13.94,12.44-25.43,27.39-25.4,15.15.04,28.6,12.45,28.59,26.37Z"/>
      <path class="cls-1" d="m226.13,304.12c15.5,0,27.67,10.86,27.76,24.8.09,14.9-12.28,27.11-27.47,27.08-15.74-.02-28.12-11.06-28.06-25.02.07-14.67,12.67-26.86,27.77-26.86Z"/>
    </g>
  </g>
</svg>